Coordinates
version=1
nRows=8
nColumns=46
inDegrees=yes

Units are S.I. units (second, meters, Newtons, ...)
Angles are in degrees.

endheader
time	pelvis_tilt	pelvis_list	pelvis_rotation	pelvis_tx	pelvis_ty	pelvis_tz	bb_angle	bb_tx	bb_ty	bb_tz	hip_flexion_r	hip_adduction_r	hip_rotation_r	knee_angle_r	knee_angle_r_beta	ankle_angle_r	subtalar_angle_r	mtp_angle_r	crank_angle_r	hip_flexion_l	hip_adduction_l	hip_rotation_l	knee_angle_l	knee_angle_l_beta	ankle_angle_l	subtalar_angle_l	mtp_angle_l	crank_angle_l	lumbar_extension	lumbar_bending	lumbar_rotation	arm_flex_r	arm_add_r	arm_rot_r	elbow_flex_r	pro_sup_r	wrist_flex_r	wrist_dev_r	arm_flex_l	arm_add_l	arm_rot_l	elbow_flex_l	pro_sup_l	wrist_flex_l	wrist_dev_l
      7.50500000	    -13.18257071	      5.73908801	      2.19282441	      0.19941413	      1.06737875	     -0.29555885	      0.00000000	      0.50000000	      0.00000000	      0.25000000	     44.48607647	    -13.65879817	     -4.30380640	     52.78981976	      0.92135617	    -22.76877773	     -6.13022270	      0.00000000	      0.00000000	     88.31401128	     -2.85159284	      1.59255925	    105.13381946	      1.83493130	      6.58077470	     -5.03954861	      0.00000000	      0.00000000	    -70.69261788	    -12.83732946	     -2.76114769	     87.58397756	    -45.71387216	     46.77251924	     70.93677586	     42.12040075	      0.00000000	      0.00000000	     89.67848710	     -5.75067899	     31.20983562	     71.04517283	     38.57185331	      0.00000000	      0.00000000
      7.51000000	    -13.20665151	      5.41188799	      2.28239814	      0.19896135	      1.06772975	     -0.29474296	      0.00000000	      0.50000000	      0.00000000	      0.25000000	     45.16498485	    -13.26296962	     -3.88424052	     54.94919091	      0.95904430	    -22.66314472	     -6.77857240	      0.00000000	      0.00000000	     87.26043285	     -3.04258444	      1.61727704	    102.99473603	      1.79759726	      7.76940940	     -4.95226936	      0.00000000	      0.00000000	    -70.64369108	    -12.93211290	     -2.46820691	     87.59304165	    -45.79852599	     46.77061285	     70.76312743	     42.09624786	      0.00000000	      0.00000000	     89.68081406	     -5.48425177	     31.26802641	     71.11439897	     38.51079032	      0.00000000	      0.00000000
      7.51500000	    -13.27159028	      5.35164611	      2.36865444	      0.19872742	      1.06805779	     -0.29433256	      0.00000000	      0.50000000	      0.00000000	      0.25000000	     46.03405682	    -13.14027491	     -3.36924218	     57.26861691	      0.99952592	    -22.50590596	     -7.62049890	      0.00000000	      0.00000000	     86.07135114	     -3.14249181	      1.26815096	    100.67613600	      1.75713005	      8.94902638	     -4.78554697	      0.00000000	      0.00000000	    -70.65712290	    -13.13182581	     -2.37578609	     87.52710058	    -46.09232963	     46.79015582	     70.53354012	     42.06773464	      0.00000000	      0.00000000	     89.68522154	     -5.06504113	     31.34480587	     71.12653022	     38.43057193	      0.00000000	      0.00000000
      7.52000000	    -13.35771891	      5.54450482	      2.49838189	      0.19856394	      1.06839530	     -0.29402774	      0.00000000	      0.50000000	      0.00000000	      0.25000000	     46.99018178	    -13.22421415	     -2.64305557	     59.60414327	      1.04028855	    -22.38590635	     -8.57039663	      0.00000000	      0.00000000	     84.76129748	     -3.11456914	      0.61395849	     98.13924139	      1.71285289	      9.80243220	     -4.67997009	      0.00000000	      0.00000000	    -70.68790559	    -13.46950006	     -2.48792604	     87.31407194	    -46.58573302	     46.89289333	     70.27885981	     42.05473803	      0.00000000	      0.00000000	     89.69294081	     -4.39107010	     31.42196194	     70.91681307	     38.24689814	      0.00000000	      0.00000000
      7.52500000	    -13.33532930	      5.59645852	      2.65872888	      0.19836821	      1.06856551	     -0.29383597	      0.00000000	      0.50000000	      0.00000000	      0.25000000	     47.89073807	    -13.22267202	     -2.03011892	     62.04009965	      1.08280401	    -22.28912971	     -9.26935498	      0.00000000	      0.00000000	     83.38564416	     -2.97378210	      0.12962557	     95.57870101	      1.66816303	     10.15785760	     -5.11906546	      0.00000000	      0.00000000	    -70.72511683	    -13.66281032	     -2.42967692	     87.11480558	    -47.07775977	     47.06755981	     70.15049696	     42.08711871	      0.00000000	      0.00000000	     89.69635556	     -3.64546561	     31.39571146	     70.41210848	     37.91850523	      0.00000000	      0.00000000
      7.53000000	    -13.26459085	      5.58535742	      2.80881369	      0.19821585	      1.06854858	     -0.29394054	      0.00000000	      0.50000000	      0.00000000	      0.25000000	     48.75454869	    -13.16553761	     -1.39869338	     64.52955505	      1.12625320	    -21.81891910	     -9.70635743	      0.00000000	      0.00000000	     81.95916847	     -2.83828249	     -0.27680111	     93.00558413	      1.62325367	     10.27259003	     -5.50861556	      0.00000000	      0.00000000	    -70.75298889	    -13.74239520	     -2.21359076	     86.95304414	    -47.63667168	     47.28555272	     70.22303199	     42.20578504	      0.00000000	      0.00000000	     89.69930931	     -2.74891559	     31.19226337	     69.60701488	     37.26518795	      0.00000000	      0.00000000
      7.53500000	    -13.15155494	      5.21153448	      2.91513375	      0.19802672	      1.06811303	     -0.29377372	      0.00000000	      0.50000000	      0.00000000	      0.25000000	     49.58441558	    -12.70728312	     -0.98391936	     67.05935924	      1.17040661	    -21.38197347	    -10.31420053	      0.00000000	      0.00000000	     80.69172274	     -2.90857511	     -0.31304946	     90.58592743	      1.58102269	     10.19404258	     -5.60309969	      0.00000000	      0.00000000	    -70.70358440	    -13.63339696	     -1.85045412	     86.90776842	    -47.69978202	     47.30613829	     70.17286972	     42.21362473	      0.00000000	      0.00000000	     89.69579422	     -2.51946877	     31.23116285	     69.58606490	     37.17961489	      0.00000000	      0.00000000
      7.54000000	    -13.08358630	      4.88667877	      2.97442852	      0.19774303	      1.06724111	     -0.29354886	      0.00000000	      0.50000000	      0.00000000	      0.25000000	     50.57245086	    -12.20824171	     -0.44343275	     69.65812321	      1.21576360	    -20.99659866	    -10.87087556	      0.00000000	      0.00000000	     79.52449779	     -3.00977858	     -0.34498180	     88.22858129	      1.53987924	      9.78547213	     -5.64882165	      0.00000000	      0.00000000	    -70.54511919	    -13.59207310	     -1.49534724	     86.78682946	    -47.75915959	     47.35389952	     70.11818016	     42.22298088	      0.00000000	      0.00000000	     89.68904461	     -2.27977349	     31.26935640	     69.49224003	     37.09283973	      0.00000000	      0.00000000
